<svg width="155" height="155" viewBox="0 0 155 155" fill="none" xmlns="http://www.w3.org/2000/svg">
<path d="M21.8383 135.886L50.5614 106.036M20.1487 68.6509C21.2751 51.0039 34.5666 17.2197 78.7214 19.022M78.7214 131.729C92.9891 130.603 122.074 121.707 130.184 88.3659" stroke="#04FCF9" stroke-width="4.928"/>
<path d="M5.12622 129.789H27.6542V152.317H5.12622V129.789Z" fill="#04FCF9"/>
<path d="M4 24.2752V4H24.2752M128.662 4H150.064V24.2752M150.064 130.915V150.064H128.662" stroke="#04FCF9" stroke-width="8"/>
<path d="M114.555 75.3424C114.555 96.999 96.9986 114.555 75.342 114.555C53.6854 114.555 36.1293 96.999 36.1293 75.3424C36.1293 53.6857 53.6854 36.1295 75.342 36.1295C96.9986 36.1295 114.555 53.6857 114.555 75.3424Z" stroke="#04FCF9" stroke-width="4.928"/>
<path d="M60.8394 92.238V56.334H79.8473L80.6921 60.558H92.5193V81.678H77.7353L76.8905 77.454H65.0633V92.238H60.8394Z" fill="#04FCFC"/>
</svg>
